<?xml version="1.0" standalone="no"?>
<!DOCTYPE svg PUBLIC "-//W3C//DTD SVG 20010904//EN"
 "http://www.w3.org/TR/2001/REC-SVG-20010904/DTD/svg10.dtd">
<svg version="1.0" xmlns="http://www.w3.org/2000/svg"
 width="260.000000pt" height="313.000000pt" viewBox="0 0 260.000000 313.000000"
 preserveAspectRatio="xMidYMid meet">
<metadata>
Created by potrace 1.15, written by Peter Selinger 2001-2017
</metadata>
<g transform="translate(0.000000,313.000000) scale(0.100000,-0.100000)"
fill="#000000" stroke="none">
<path d="M1482 2393 c-5 -16 -77 -210 -160 -433 -83 -223 -207 -557 -276 -743
-69 -186 -126 -347 -126 -358 0 -12 7 -19 19 -19 15 0 26 17 46 73 15 39 30
75 34 79 5 5 288 -67 299 -77 2 -1 -6 -27 -17 -56 -17 -43 -18 -56 -8 -66 7
-7 18 -9 25 -4 15 9 581 1526 582 1559 0 15 -6 22 -19 22 -14 0 -26 -20 -50
-85 -18 -47 -35 -85 -37 -85 -21 0 -294 85 -294 91 0 5 9 32 20 60 10 29 17
56 14 61 -12 18 -42 7 -52 -19z m146 -208 c70 -20 132 -38 139 -40 13 -4 -50
-181 -64 -179 -35 5 -293 80 -293 86 0 25 64 168 76 168 8 0 71 -16 142 -35z
m-90 -237 c81 -23 148 -42 150 -43 2 -2 -68 -196 -74 -204 -3 -4 -294 76 -301
82 -3 4 70 207 75 207 2 0 69 -19 150 -42z m-90 -267 c73 -22 135 -41 137 -43
4 -4 -63 -189 -71 -197 -4 -4 -271 68 -290 78 -16 9 56 201 76 201 8 0 75 -18
148 -39z m-104 -260 c75 -21 139 -40 142 -43 5 -5 -54 -177 -65 -190 -6 -7
-289 67 -300 78 -2 2 7 32 20 66 38 103 49 128 58 128 4 0 70 -17 145 -39z
m43 -296 c9 -3 5 -23 -13 -72 -14 -37 -29 -71 -32 -74 -6 -5 -235 55 -290 76
-9 3 -6 21 13 70 13 37 27 70 30 74 4 7 206 -45 292 -74z"/>
</g>
</svg>
